<mxfile host="app.diagrams.net" modified="2023-11-22T07:41:10.246Z" agent="Mozilla/5.0 (Windows NT 10.0; Win64; x64) AppleWebKit/537.36 (KHTML, like Gecko) Chrome/119.0.0.0 Safari/537.36 Edg/119.0.0.0" version="22.1.3" etag="1S3Ug4P-jg3KKkwUYPO8" type="github">
  <diagram name="Page-1" id="vk_kYO--1kawkO1pZJn5">
    <mxGraphModel>
      <root>
        <mxCell id="0" />
        <mxCell id="1" parent="0" />
      </root>
    </mxGraphModel>
  </diagram>
</mxfile>
